# xmcd CD database file
#
# Track frame offsets:
#	150
#	16021
#	30765
#	44272
#	59690
#	86341
#	118777
#	134285
#	151926
#	179467
#	191262
#	205561
#
# Disc length: 3198 seconds
#
# Revision: 0
# Processed by: cddbd v1.5.2PL0 Copyright (c) Steve Scherf et al.
# Submitted via: CDex 1.51
#
DISCID=8c0c7c0c
DTITLE=Dixieland - War of the Roses
DYEAR=1900
DGENRE=Jazz
TTITLE0=Big Chief Battle Axe  - The Yorkshire Jazz Band
TTITLE1=Struttin' With Some Barbecue - The Yorkshire Jazz Band
TTITLE2=Savoy Blue - The Yorkshire Jazz Band
TTITLE3=Ragtine Tuba - The Yorkshire Jazz Band
TTITLE4=Chimes Blues - The Yorkshire Jazz Band
TTITLE5=C'est Magnifique - The Yorkshire Jazz Band
TTITLE6=Montmartre - The Yorkshire Jazz Band
TTITLE7=Friendless Blues - The Yorkshire Jazz Band
TTITLE8=Maple Leaf Rag - The Yorkshire Jazz Band
TTITLE9=She's Crying For Me - The Yorkshire Jazz Band
TTITLE10=Memphis Blues - The Yorkshire Jazz Band
TTITLE11=Ain't She Sweet - The Yorkshire Jazz Band
EXTD=
EXTT0=
EXTT1=
EXTT2=
EXTT3=
EXTT4=
EXTT5=
EXTT6=
EXTT7=
EXTT8=
EXTT9=
EXTT10=
EXTT11=
PLAYORDER=
